<?xml version="1.0" encoding="UTF-8" standalone="no"?>
<!DOCTYPE svg PUBLIC "-//W3C//DTD SVG 1.1//EN" "http://www.w3.org/Graphics/SVG/1.1/DTD/svg11.dtd">
<svg width="100%" height="100%" viewBox="0 0 1831 1624" version="1.1" xmlns="http://www.w3.org/2000/svg" xmlns:xlink="http://www.w3.org/1999/xlink" xml:space="preserve" xmlns:serif="http://www.serif.com/" style="fill-rule:evenodd;clip-rule:evenodd;stroke-linecap:round;stroke-linejoin:round;stroke-miterlimit:1.5;">
    <g transform="matrix(1,0,0,1,-2013,-0)">
        <g id="Plan-de-travail2" serif:id="Plan de travail2" transform="matrix(1.024185,0,0,1,-48.68456,-0.993694)">
            <rect x="2013" y="0.994" width="1787" height="1623.887" style="fill:none;"/>
            <clipPath id="_clip1">
                <rect x="2013" y="0.994" width="1787" height="1623.887"/>
            </clipPath>
            <g clip-path="url(#_clip1)">
                <g transform="matrix(1.042394,1.442479,-1.408416,1.067604,3538.427895,-1815.440917)">
                    <path d="M932.5,504.439C932.5,504.439 1368,907.284 1368,1231.5C1368,1471.859 1172.859,1667 932.5,1667C692.141,1667 497,1471.859 497,1231.5C497,884.508 932.5,504.439 932.5,504.439Z" style="fill:rgb(82,183,136);"/>
                </g>
                <g transform="matrix(0.976386,0,0,1,47.534925,0.993694)">
                    <path d="M2363,1186C2363,1186 3005.541,405.975 3690,144" style="fill:none;stroke:rgb(68,151,113);stroke-width:91.67px;"/>
                </g>
            </g>
        </g>
    </g>
</svg>
